<svg width="111" height="111" viewBox="0 0 111 111" fill="none" xmlns="http://www.w3.org/2000/svg">
<g clip-path="url(#clip0_3_591)">
<path d="M87.8766 38.7894L85.5284 42.4841C83.7921 36.9494 80.5476 31.8656 76.1584 28.0036L72.9092 31.6997C76.7814 35.1067 79.5864 39.6374 81.0001 44.5499L77.0404 42.6442L74.9063 47.0806L85.2692 52.0697L92.0295 41.4281L87.8766 38.7894Z" fill="#47568C"/>
<path d="M22.5873 31.2238L23.3564 36.0831L27.6714 35.3997C24.6555 40.3835 22.9882 46.182 23.0078 52.0072L27.9296 51.9928C27.9131 46.8597 29.4572 41.7612 32.2164 37.4332L33.409 41.6708L38.1483 40.3345L35.0265 29.2506L22.5873 31.2238Z" fill="#61729B"/>
<path d="M27.9297 74.1484C33.3662 74.1484 37.7734 69.7412 37.7734 64.3047C37.7734 58.8681 33.3662 54.4609 27.9297 54.4609C22.4931 54.4609 18.0859 58.8681 18.0859 64.3047C18.0859 69.7412 22.4931 74.1484 27.9297 74.1484Z" fill="#FFE1BA"/>
<path d="M37.7734 64.3047C37.7734 58.8757 33.3587 54.4609 27.9297 54.4609V74.1484C33.3587 74.1484 37.7734 69.7337 37.7734 64.3047Z" fill="#FFBFAB"/>
<path d="M27.9297 74.1484C19.7874 74.1484 13 80.7718 13 88.9141V94H27.9297H42.6953V88.9141C42.6953 80.7718 36.0719 74.1484 27.9297 74.1484Z" fill="#9999FF"/>
<path d="M42.6953 88.9141C42.6953 80.7718 36.0719 74.1484 27.9297 74.1484V94H42.6953V88.9141Z" fill="#6680FF"/>
<path d="M82.0703 74.1484C87.5069 74.1484 91.9141 69.7412 91.9141 64.3047C91.9141 58.8681 87.5069 54.4609 82.0703 54.4609C76.6338 54.4609 72.2266 58.8681 72.2266 64.3047C72.2266 69.7412 76.6338 74.1484 82.0703 74.1484Z" fill="#FFE1BA"/>
<path d="M91.9141 64.3047C91.9141 58.8757 87.4993 54.4609 82.0703 54.4609V74.1484C87.4993 74.1484 91.9141 69.7337 91.9141 64.3047Z" fill="#FFBFAB"/>
<path d="M82.0703 74.1484C73.9281 74.1484 67.3047 80.7718 67.3047 88.9141V94H82.0703H97V88.9141C97 80.7718 90.2126 74.1484 82.0703 74.1484Z" fill="#9999FF"/>
<path d="M97 88.9141C97 80.7718 90.2126 74.1484 82.0703 74.1484V94H97V88.9141Z" fill="#6680FF"/>
<path d="M55 10C49.571 10 45.1562 14.5788 45.1562 20.0078C45.1562 25.4368 49.571 29.8516 55 29.8516C60.429 29.8516 64.8438 25.4368 64.8438 20.0078C64.8438 14.5788 60.429 10 55 10Z" fill="#FFE1BA"/>
<path d="M64.8438 20.0078C64.8438 14.5788 60.429 10 55 10V29.8516C60.429 29.8516 64.8438 25.4368 64.8438 20.0078Z" fill="#FFBFAB"/>
<path d="M55 29.8516C46.8577 29.8516 40.2344 36.4749 40.2344 44.6172V49.5391H55H69.7656V44.6172C69.7656 36.4749 63.1423 29.8516 55 29.8516Z" fill="#9999FF"/>
<path d="M69.7656 44.6172C69.7656 36.4749 63.1423 29.8516 55 29.8516V49.5391H69.7656V44.6172Z" fill="#6680FF"/>
<path d="M66.6966 81.7883L64.8893 77.2077C61.7354 78.452 58.3701 79.0736 54.9999 79.0723C53.8577 79.072 52.7154 79.0022 51.5797 78.858L54.7452 75.845L51.3517 72.2786L43.3584 79.8874L49.6766 90.0699L53.8582 87.4744L51.5454 83.7482C52.6949 83.8729 53.8456 83.9994 54.9998 83.9994C58.9845 83.9994 62.9668 83.2592 66.6966 81.7883Z" fill="#61729B"/>
<path d="M64.8894 77.2077C61.7354 78.452 58.3702 79.0736 55 79.0723V83.9992C58.9846 83.9992 62.9669 83.259 66.6967 81.7882L64.8894 77.2077Z" fill="#47568C"/>
</g>
<defs>
<clipPath id="clip0_3_591">
<rect width="84" height="84" fill="white" transform="translate(13 10)"/>
</clipPath>
</defs>
</svg>
