<svg width="111" height="111" viewBox="0 0 111 111" fill="none" xmlns="http://www.w3.org/2000/svg">
<path d="M10.7539 21.9317H99.2461V66.7278H10.7539V21.9317Z" fill="#80FFD4"/>
<path d="M55 21.9317H99.2461V66.7278H55V21.9317Z" fill="#2EE6E6"/>
<path d="M19.0162 30.194H24.5244V35.7018H19.0162V30.194Z" fill="#6BA7FF"/>
<path d="M85.4756 30.194H90.9838V35.7018H85.4756V30.194Z" fill="#7771F0"/>
<path d="M35.1485 53.3344H30.6052C25.653 53.3344 21.6383 57.3491 21.6383 62.3014V66.7001H44.1154V62.3014C44.1156 57.3491 40.1009 53.3344 35.1485 53.3344Z" fill="#FFAF00"/>
<path d="M39.5417 46.6695V44.5378C39.5417 40.8569 36.5578 37.873 32.8769 37.873C29.196 37.873 26.212 40.8569 26.212 44.5378V46.6695C26.212 50.3504 29.196 53.3344 32.8769 53.3344C36.558 53.3344 39.5417 50.3504 39.5417 46.6695Z" fill="#FFD8AF"/>
<path d="M79.3946 53.3344H74.8513C69.8991 53.3344 65.8844 57.3491 65.8844 62.3014V66.7001H88.3615V62.3014C88.3617 57.3491 84.347 53.3344 79.3946 53.3344Z" fill="#7771F0"/>
<path d="M83.7879 46.6695V44.5378C83.7879 40.8569 80.804 37.873 77.1231 37.873C73.4422 37.873 70.4583 40.8569 70.4583 44.5378V46.6695C70.4583 50.3504 73.4422 53.3344 77.1231 53.3344C80.804 53.3344 83.7879 50.3504 83.7879 46.6695Z" fill="#D89664"/>
<path d="M33.8855 74.9901H76.1146V90.0682H33.8855V74.9901Z" fill="#D2E4FC"/>
<path d="M55 74.9901H76.1145V90.0682H55V74.9901Z" fill="#CDD2F1"/>
<path d="M56.8361 90.0682L54.9999 92.8223H23.4211V87.3145H54.9999L56.8361 90.0682Z" fill="#E4F9FF"/>
<path d="M55 87.3145H86.5788V92.8223H55V87.3145Z" fill="#D2E4FC"/>
<path d="M10.7539 66.728L8 69.4817V80.4979H55L56.8361 73.613L55 66.728H10.7539Z" fill="#E4F9FF"/>
<path d="M102 69.4817L99.2461 66.728H55V80.4979H102V69.4817Z" fill="#D2E4FC"/>
<path d="M55 63.9739H13.5078V24.6856H55L56.8361 21.9317L55 19.1777H8V69.4817H55L56.8361 66.7278L55 63.9739Z" fill="#4D4680"/>
<path d="M102 19.1777H55V24.6856H96.4922V63.9739H55V69.4817H102V19.1777Z" fill="#3A356B"/>
</svg>
