<svg width="111" height="111" viewBox="0 0 111 111" fill="none" xmlns="http://www.w3.org/2000/svg">
<circle cx="55.5" cy="55.5" r="55.5" fill="#DEECF1"/>
<g clip-path="url(#clip0_3_633)">
<path d="M84.7752 32.1027C83.3928 34.8725 83.1933 35.7685 82.3362 36.6255C80.4174 38.5444 77.2935 38.5444 75.3746 36.6255C73.4558 34.7067 73.4558 31.5827 75.3746 29.6639C76.2359 28.8026 77.1261 28.6085 79.8974 27.2249L66.6725 14L59.5793 21.0932C55.7398 17.2537 49.4954 17.2537 45.6559 21.0932C41.8164 24.9327 41.8164 31.1771 45.6559 35.0166L40.2705 40.402L42.011 49.1041L52.4536 59.5467L62.8962 69.9893L71.5983 71.7298L98.0003 45.3278L84.7752 32.1027Z" fill="#61729B"/>
<path d="M71.5981 71.7296L98.0001 45.3276L84.7752 32.1027C83.3927 34.8726 83.1932 35.7685 82.3362 36.6255C80.4173 38.5444 77.2934 38.5444 75.3746 36.6255L52.4534 59.5467L62.896 69.9893L71.5981 71.7296Z" fill="#47568C"/>
<path d="M60.1909 78.4933L61.69 81.6376L71.598 71.7296L62.8959 63.0275C66.7408 59.1826 66.7407 52.9489 62.8959 49.1041C59.0511 45.2594 52.8176 45.2592 48.9725 49.1041L40.2704 40.402L30.3624 50.31L33.5067 51.8091C37.0623 53.5122 37.166 57.4298 34.885 59.7106C32.6042 61.9915 28.678 61.8963 26.9835 58.3323L25.4844 55.188L14 66.6724L29.6637 82.3361L45.3274 97.9998L56.8118 86.5155L53.6676 85.0163C50.1154 83.3338 50.0082 79.3957 52.2892 77.1148C54.5702 74.834 58.4996 74.9497 60.1909 78.4933Z" fill="#FF7B4A"/>
<path d="M56.8121 86.5156L53.6678 85.0165C50.1156 83.3339 50.0085 79.3958 52.2895 77.115C54.5703 74.8342 58.4999 74.9497 60.191 78.4933L61.6901 81.6376L71.5981 71.7296L62.896 63.0275C66.7409 59.1826 66.7407 52.9489 62.896 49.1041L29.6638 82.3361L45.3275 97.9998L56.8121 86.5156Z" fill="#FF435B"/>
</g>
<defs>
<clipPath id="clip0_3_633">
<rect width="84" height="84" fill="white" transform="translate(14 14)"/>
</clipPath>
</defs>
</svg>
