<svg width="111" height="111" viewBox="0 0 111 111" fill="none" xmlns="http://www.w3.org/2000/svg">
<circle cx="55.5" cy="55.5" r="55.5" fill="#DEECF1"/>
<g clip-path="url(#clip0_3_608)">
<path d="M43.7908 27.9101L39.9896 37.1803L28.2708 25.4614C33.2882 22.8936 39.5905 23.7098 43.7908 27.9101Z" fill="#574BB3"/>
<path d="M34.3501 37.35L48.3608 56.8298L56.9043 48.2863L47.6006 38.9826C48.0846 35.044 46.814 30.9331 43.7905 27.9097L34.3501 37.35Z" fill="#C091F6"/>
<path d="M34.3501 37.35L51.0954 54.0953L45.2855 59.9052L35.9818 50.6016C32.0441 51.0847 27.9332 49.8141 24.9098 46.7906C20.7094 42.5902 19.8937 36.289 22.4614 31.2712L31.4451 40.2549L34.3501 37.35Z" fill="#574BB3"/>
<path d="M64.2092 86.0898L68.0104 76.8196L79.7293 88.5385C74.7117 91.1063 68.4095 90.29 64.2092 86.0898Z" fill="#C091F6"/>
<path d="M73.65 76.6499L59.6392 57.1701L51.0957 65.7136L60.3994 75.0173C59.9153 78.9559 61.1859 83.0668 64.2094 86.0902L73.65 76.6499Z" fill="#574BB3"/>
<path d="M73.6501 76.6499L56.9048 59.9046L62.7147 54.0947L72.0184 63.3983C75.9561 62.9152 80.067 64.1858 83.0904 67.2093C87.2905 71.4095 88.1064 77.7108 85.5387 82.7286L76.555 73.7448L73.6501 76.6499Z" fill="#C091F6"/>
<path d="M83.7492 27.2506L85.2016 28.703C87.598 31.0994 87.598 35.0208 85.2016 37.4172L81.6752 40.9435L72.2197 35.1341L83.7492 27.2506Z" fill="#6680FF"/>
<path d="M82.2969 25.7984L83.7493 27.2507L74.0428 36.9572L70.0564 29.3247L73.5828 25.7984C75.9791 23.4019 79.9006 23.4019 82.2969 25.7984Z" fill="#FF8151"/>
<path d="M75.8658 35.134L81.6753 40.9435L75.8658 46.7529L66.4104 40.9435L75.8658 35.134Z" fill="#A3FDF6"/>
<path d="M70.0562 29.3246L75.8658 35.1341L68.2332 42.7665L64.2468 35.1341L70.0562 29.3246Z" fill="#DBFFFA"/>
<path d="M26.3318 82.8459L27.6078 87.768L21.7742 89.2264L26.3318 82.8459Z" fill="#000E0F"/>
<path d="M23.2326 83.3928L25.4203 85.5803L21.7742 89.2264L23.2326 83.3928Z" fill="#116371"/>
<path d="M32.3685 76.8089L37.266 85.3526L27.6077 87.768L25.4202 85.5803L32.3685 76.8089Z" fill="#FFA07D"/>
<path d="M25.647 73.7336L31.4569 79.5435L25.4201 85.5803L23.2324 83.3928L25.647 73.7336Z" fill="#FFC0A8"/>
<path d="M70.0563 40.9435L75.8658 46.7531L37.2658 85.3531L31.4563 79.5435L48.0218 57.5091L70.0563 40.9435Z" fill="#FFD15E"/>
<path d="M70.0561 40.9429L64.2468 35.1336L25.6472 73.7332L31.4565 79.5425L70.0561 40.9429Z" fill="#FFEA7C"/>
</g>
<defs>
<clipPath id="clip0_3_608">
<rect width="66" height="66" fill="white" transform="translate(21 24)"/>
</clipPath>
</defs>
</svg>
