<svg width="111" height="111" viewBox="0 0 111 111" fill="none" xmlns="http://www.w3.org/2000/svg">
<path d="M20.9062 13.9062H76.125V101.094H20.9062V13.9062Z" fill="#C8CDED"/>
<path d="M20.9062 13.9062H71.7656V93.8281H20.9062V13.9062Z" fill="#E2E7F6"/>
<path d="M61.3628 46.106L78.129 29.3399C78.4152 29.0536 78.755 28.8266 79.129 28.6718C79.503 28.5169 79.9039 28.4373 80.3086 28.4375C81.1259 28.4379 81.9096 28.7627 82.4876 29.3406C83.0655 29.9186 83.3903 30.7023 83.3907 31.5196C83.3909 31.9244 83.3113 32.3252 83.1564 32.6992C83.0016 33.0732 82.7746 33.4131 82.4883 33.6993L66.7394 49.4482" fill="#686868"/>
<path d="M61.8015 54.3859L57.2344 58.9531L51.4219 60.4062L52.875 54.5937L56.8188 50.65" fill="#686868"/>
<path d="M71.7655 35.7031H64.4999L59.7932 45.1165L59.9196 45.192L61.3728 46.0988L71.7655 35.7031Z" fill="#FCD3B6"/>
<path d="M84.8438 73.4844L77.5781 66.2188H73.9046C72.8251 66.2188 71.7669 65.9183 70.8486 65.3509C69.9303 64.7834 69.1882 63.9714 68.7053 63.0059L65.9531 57.5L55.4906 49.6531C55.1297 49.3824 54.8367 49.0314 54.6349 48.6278C54.4332 48.2243 54.3281 47.7793 54.3281 47.3281C54.3281 46.5573 54.6343 45.8181 55.1793 45.2731C55.7244 44.7281 56.4636 44.4219 57.2344 44.4219C58.1839 44.4222 59.1143 44.689 59.9197 45.192L66.7378 49.4526L77.5781 38.6094L86.2969 56.0469L97.9219 60.4062" fill="#FCD3B6"/>
<path d="M83.3777 74.9379L99.3593 58.9563L108.076 67.6734L92.0948 83.655L83.3777 74.9379Z" fill="#3B5892"/>
<path d="M87.0234 71.3047L91.082 75.3633C91.3545 75.6357 91.7241 75.7887 92.1094 75.7887C92.4947 75.7887 92.8642 75.6357 93.1367 75.3633L104.461 64.0391L99.375 58.9531L87.0234 71.3047Z" fill="#4C6CB5"/>
<path d="M51.4219 67.6719C49.8484 67.6763 48.2898 67.3685 46.8361 66.7664C45.3824 66.1642 44.0626 65.2797 42.9531 64.164C42.7008 63.899 42.3981 63.6871 42.0627 63.5408C41.7272 63.3946 41.366 63.317 41.0001 63.3125C40.2958 63.3133 39.6206 63.5934 39.1226 64.0914C38.6246 64.5894 38.3445 65.2646 38.3438 65.9688V66.2188C38.3438 66.6042 38.1907 66.9738 37.9182 67.2463C37.6456 67.5188 37.276 67.6719 36.8906 67.6719C34.8563 67.6776 32.8411 67.2798 30.9616 66.5013C29.0821 65.7228 27.3758 64.5792 25.9413 63.1367L25.6914 62.8867L27.7461 60.832L27.9961 61.082C30.0307 63.1285 32.7118 64.4067 35.5828 64.6988C35.8091 63.7336 36.2891 62.8464 36.9734 62.129C37.6576 61.4116 38.5211 60.8902 39.4745 60.6185C40.4279 60.3469 41.4366 60.335 42.3962 60.5841C43.3557 60.8332 44.2313 61.3342 44.9322 62.0352C45.7776 62.8996 46.7871 63.5865 47.9015 64.0553C49.016 64.5242 50.2128 64.7657 51.4219 64.7656V67.6719Z" fill="#939393"/>
<path d="M25.2656 70.5781H71.7656V73.4844H25.2656V70.5781Z" fill="#9DA1BF"/>
<path d="M25.2656 76.3906H71.7656V79.2969H25.2656V76.3906Z" fill="#9DA1BF"/>
<path d="M25.2656 82.2031H71.7656V85.1094H25.2656V82.2031Z" fill="#9DA1BF"/>
<path d="M25.2656 88.0156H71.7656V90.9219H25.2656V88.0156Z" fill="#9DA1BF"/>
<path d="M39.7969 45.875C47.0197 45.875 52.875 40.0197 52.875 32.7969C52.875 25.574 47.0197 19.7188 39.7969 19.7188C32.574 19.7188 26.7188 25.574 26.7188 32.7969C26.7188 40.0197 32.574 45.875 39.7969 45.875Z" fill="#4D8C28"/>
<path d="M49.9686 31.3438C49.97 29.1993 49.4436 27.0875 48.4357 25.1947C47.4278 23.3019 45.9696 21.6862 44.1896 20.4904C41.1912 19.4298 37.9091 19.4983 34.9575 20.6829C32.0059 21.8675 29.5871 24.0871 28.1538 26.9262C26.7206 29.7653 26.371 33.0295 27.1705 36.1078C27.9701 39.1861 29.8639 41.8675 32.4977 43.6503C34.4702 44.3604 36.5848 44.5848 38.6625 44.3046C40.7401 44.0244 42.7197 43.2478 44.4336 42.0405C46.1475 40.8332 47.5454 39.2308 48.5089 37.3688C49.4723 35.5069 49.973 33.4402 49.9686 31.3438Z" fill="#559B2D"/>
<path d="M36.8906 40.0625C36.5053 40.0624 36.1357 39.9093 35.8633 39.6367L31.5039 35.2774L33.5586 33.2226L36.8906 36.5547L46.0352 27.4101L48.0899 29.4649L37.918 39.6367C37.6455 39.9093 37.276 40.0624 36.8906 40.0625Z" fill="#F2F2F2"/>
</svg>
