<svg width="111" height="111" viewBox="0 0 111 111" fill="none" xmlns="http://www.w3.org/2000/svg">
<g clip-path="url(#clip0_79_119)">
<path d="M95.3657 30.9266H55.526L51.1238 89.2439L95.3657 85.2496V30.9266Z" fill="#5E3373"/>
<path d="M15.686 30.9266V85.2496L55.5258 89.2439V30.9266H15.686Z" fill="#6D4D8C"/>
<path d="M88.7624 36.9181H55.526L51.1238 60.0853L55.526 79.2581H88.7624V36.9181Z" fill="#E6E6F2"/>
<path d="M22.2896 36.9181H55.526V79.2581H22.2896V36.9181Z" fill="#FFF5F5"/>
<path d="M51.1238 89.2439L55.526 97.2326H98.6673C102.314 97.2326 105.271 94.5502 105.271 91.2411V85.2496H65.4309L51.1238 89.2439Z" fill="#B8A3CC"/>
<path d="M5.78125 85.2496V91.2411C5.78125 94.5502 8.73753 97.2326 12.3845 97.2326H55.5259V89.2439L45.621 85.2496H5.78125Z" fill="#D7CFE6"/>
<path d="M65.4309 85.2496H55.526L51.1238 88.2453L55.526 91.2411H65.4309V85.2496Z" fill="#987DB3"/>
<path d="M48.9227 46.1051C43.4612 46.1051 39.0178 50.1368 39.0178 55.0923V70.0711H45.6211V64.0796H52.2244V70.0711H58.8276V55.0923C58.8276 50.1368 54.3843 46.1051 48.9227 46.1051ZM45.6211 58.0881V55.0923C45.6211 53.4405 47.1022 52.0966 48.9227 52.0966C50.7433 52.0966 52.2244 53.4405 52.2244 55.0923V58.0881H45.6211Z" fill="#2EC7E6"/>
<path d="M65.4309 46.1051H72.0342V70.0711H65.4309V46.1051Z" fill="#2995CC"/>
<path d="M52.2244 29.1691H58.8276V35.1606H52.2244V29.1691Z" fill="#FFC34D"/>
<path d="M45.6211 17.1861H52.2244V23.1776H45.6211V17.1861Z" fill="#FFE14D"/>
<path d="M58.8276 17.1861H65.4309V23.1776H58.8276V17.1861Z" fill="#FFC34D"/>
<path d="M39.0178 5.20312H45.6211V11.1946H39.0178V5.20312Z" fill="#FFE14D"/>
<path d="M52.2244 5.20312H58.8276V11.1946H52.2244V5.20312Z" fill="#FFE14D"/>
<path d="M65.4309 5.20312H72.0342V11.1946H65.4309V5.20312Z" fill="#FFC34D"/>
<path d="M45.6211 85.2496H55.526V91.2411H45.6211V85.2496Z" fill="#B8A3CC"/>
</g>
<defs>
<clipPath id="clip0_79_119">
<rect width="99.4375" height="101.426" fill="white" transform="translate(5.78125 5.20312)"/>
</clipPath>
</defs>
</svg>
